<svg width="56" height="56" viewBox="0 0 56 56" fill="none" xmlns="http://www.w3.org/2000/svg">
<rect width="56" height="56" rx="28" fill="#28589E"/>
<path fill-rule="evenodd" clip-rule="evenodd" d="M40.7741 18.684C40.3255 18.3785 39.7836 18.2 39.2 18.2H16.8C16.4168 18.2 16.0516 18.277 15.719 18.4163L27.8798 27.5369C28.3878 27.918 29.0888 27.9093 29.5873 27.5157L40.7741 18.684ZM14.0224 20.6439C14.0076 20.7605 14 20.8794 14 21V35C14 36.5464 15.2536 37.8 16.8 37.8H39.2C40.7464 37.8 42 36.5464 42 35V21.2836L31.3223 29.7134C29.8268 30.894 27.724 30.9201 26.1998 29.7769L14.0224 20.6439Z" fill="white"/>
</svg>
