<svg width="179" height="42" viewBox="0 0 179 42" fill="none" xmlns="http://www.w3.org/2000/svg">
<path d="M20.5273 3.31565C10.9957 3.31565 3.24134 11.2486 3.24134 21C3.24134 30.7511 10.9957 38.684 20.5273 38.684C30.0589 38.684 37.8136 30.7511 37.8136 21C37.8136 11.2486 30.0589 3.31565 20.5273 3.31565ZM20.5273 42C9.20862 42 0 32.5793 0 21C0 9.42034 9.20862 0 20.5273 0C31.846 0 41.0546 9.42034 41.0546 21C41.0546 32.5793 31.846 42 20.5273 42Z" fill="#353C41"/>
<path d="M7.15286 24.6687C8.13622 30.8565 14.0983 35.7171 20.721 35.7171C27.3451 35.7171 32.7164 31.3034 34.2895 24.9426H34.2882C30.8917 25.2774 26.881 26.4451 23.0366 24.958C20.3434 23.9165 17.3697 23.4016 14.4903 23.4016C11.8733 23.4013 9.33426 23.8268 7.15286 24.6687ZM7.15253 24.6687C7.15285 24.6687 7.15286 24.6687 7.15286 24.6687C7.15286 24.6674 7.15285 24.6671 7.15253 24.6657V24.6687Z" fill="url(#paint0_linear_106_758)"/>
<path d="M52.675 25.9001V11.2H56.4727V16.765H58.2791L61.543 11.2H65.751L61.2351 18.3609L65.9565 25.9001H61.7482L58.2588 20.23H56.4727V25.9001H52.675Z" fill="#353C41"/>
<path d="M70.8622 23.8001C71.4372 23.8001 71.9503 23.6742 72.484 23.2752V21.9103C72.1761 21.8052 71.7039 21.7211 71.2316 21.7211C70.4106 21.7211 69.6717 22.0151 69.6717 22.8132C69.6717 23.3381 70.1233 23.8001 70.8622 23.8001ZM76.6511 23.6531C76.7742 23.6531 76.9178 23.6321 77.0412 23.5902V25.7954C76.569 25.9842 75.9325 26.1101 75.2757 26.1101C74.1876 26.1101 73.3872 25.711 72.9356 24.9973C71.9915 25.7532 70.9034 26.2152 69.5074 26.2152C67.6189 26.2152 66.0795 25.0602 66.0795 23.1071C66.0795 20.5662 68.4399 19.7891 70.3491 19.7891C71.088 19.7891 71.8269 19.8732 72.484 20.0201V19.6629C72.484 18.9492 71.8269 18.4028 70.4312 18.4028C69.1379 18.4028 67.9471 18.7808 66.9824 19.1802V16.1772C67.8034 15.904 69.3637 15.505 70.8213 15.505C73.9618 15.505 75.9734 16.6178 75.9734 20.2093V23.0231C75.9734 23.5062 76.302 23.6531 76.6511 23.6531Z" fill="#353C41"/>
<path d="M78.3792 25.9001V15.82H81.8685V19.39H84.9479V15.82H88.4376V25.9001H84.9479V22.3301H81.8685V25.9001H78.3792Z" fill="#353C41"/>
<path d="M96.2976 23.2751C95.7616 23.6742 95.2484 23.8001 94.6738 23.8001C93.9349 23.8001 93.482 23.3381 93.482 22.8131C93.482 22.015 94.2229 21.7211 95.0439 21.7211C95.5158 21.7211 95.9759 21.8051 96.2976 21.9102V23.2751ZM102.902 15.8136C102.717 19.849 102.464 23.0582 101.083 23.6233C100.924 23.6882 100.684 23.7368 100.546 23.7368C100.134 23.7368 99.7798 23.5061 99.7798 23.023V20.2092C99.7798 16.6177 97.7738 15.5049 94.6329 15.5049C93.1757 15.5049 91.6026 15.904 90.7881 16.1772V19.1801C91.7528 18.7811 92.9476 18.4028 94.2409 18.4028C95.6365 18.4028 96.2907 18.9491 96.2907 19.6629V20.0197C95.6261 19.8728 94.8996 19.7891 94.1607 19.7891C92.2515 19.7891 89.8898 20.5661 89.8898 23.1071C89.8898 25.0602 91.4289 26.2152 93.3174 26.2152C94.7131 26.2152 95.8008 25.7532 96.7449 24.9972C97.3127 25.6022 98.1926 26.2185 100.345 26.2185C104.637 26.2185 105.784 23.4238 106.083 18.5551H107.831V25.9021H111.325V15.8136H102.902Z" fill="#353C41"/>
<path d="M118.356 15.4839C119.424 15.4839 120.491 15.736 121.394 16.1772V19.222C120.717 18.823 119.773 18.529 118.89 18.529C117.515 18.529 116.262 19.138 116.262 20.8601C116.262 22.456 117.494 23.1701 118.828 23.1701C119.855 23.1701 120.819 22.8972 121.497 22.4982V25.543C120.511 25.9631 119.362 26.2152 118.11 26.2152C115.359 26.2152 112.67 24.6401 112.67 21.07C112.67 17.1009 115.544 15.4839 118.356 15.4839Z" fill="#353C41"/>
<path d="M127.784 18.0879C126.819 18.0879 126.018 18.739 126.018 19.7889H129.324C129.426 19.3058 129.18 18.0879 127.784 18.0879ZM127.702 15.5051C131.93 15.5051 133.203 18.8649 132.505 21.9311H126.06C126.45 23.0443 127.784 23.4852 129.201 23.4852C130.309 23.4852 131.212 23.3168 132.033 23.0021V25.6482C131.109 25.984 129.939 26.215 128.379 26.215C125.136 26.215 122.529 24.3251 122.529 20.8602C122.529 16.9118 125.547 15.5051 127.702 15.5051Z" fill="#353C41"/>
<path d="M139.616 18.445C138.651 18.445 137.933 19.054 137.625 19.7051V22.0151C137.933 22.6662 138.651 23.2752 139.616 23.2752C141.094 23.2752 141.73 22.0362 141.73 20.8601C141.73 19.684 141.094 18.445 139.616 18.445ZM140.56 15.505C143.865 15.505 145.322 18.2559 145.322 20.8601C145.322 23.464 143.865 26.2152 140.56 26.2152C139.185 26.2152 138.22 25.711 137.625 25.081V30.5201H134.135V15.82H137.214V17.1849C137.707 16.3449 138.795 15.505 140.56 15.505Z" fill="#353C41"/>
<path d="M150.341 23.6321H151.942C152.517 23.6321 153.01 23.3801 153.01 22.75C153.01 22.0781 152.538 21.826 151.922 21.826H150.341V23.6321ZM150.321 19.894H151.737C152.312 19.894 152.805 19.6419 152.805 19.0122C152.805 18.34 152.332 18.0879 151.717 18.0879H150.321V19.894ZM146.831 25.9003V15.8201H152.948C155.617 15.8201 156.294 17.3109 156.294 18.4451C156.294 19.663 155.76 20.3978 154.693 20.818C155.904 21.217 156.5 22.0152 156.5 23.212C156.5 24.5139 155.781 25.9003 153.112 25.9003H146.831Z" fill="#353C41"/>
<path d="M158.074 25.9001V15.82H161.564V20.5872L165.074 15.82H168.132V25.9001H164.643V21.1329L161.133 25.9001H158.074Z" fill="#353C41"/>
<path d="M175.306 15.4839C176.374 15.4839 177.441 15.736 178.344 16.1772V19.222C177.667 18.823 176.723 18.529 175.84 18.529C174.465 18.529 173.212 19.138 173.212 20.8601C173.212 22.456 174.444 23.1701 175.779 23.1701C176.805 23.1701 177.77 22.8972 178.447 22.4982V25.543C177.462 25.9631 176.312 26.2152 175.06 26.2152C172.31 26.2152 169.62 24.6401 169.62 21.07C169.62 17.1009 172.494 15.4839 175.306 15.4839Z" fill="#353C41"/>
<defs>
<linearGradient id="paint0_linear_106_758" x1="20.7211" y1="35.7168" x2="20.7211" y2="23.4014" gradientUnits="userSpaceOnUse">
<stop stop-color="#264D98"/>
<stop offset="0.205713" stop-color="#264D98"/>
<stop offset="1" stop-color="#2962A3"/>
</linearGradient>
</defs>
</svg>
