<svg width="56" height="56" viewBox="0 0 56 56" fill="none" xmlns="http://www.w3.org/2000/svg">
<rect width="56" height="56" rx="28" fill="#28589E"/>
<path fill-rule="evenodd" clip-rule="evenodd" d="M42.2804 21.2339C42.9535 22.9873 43.2764 24.56 43.3471 26.4774C43.3584 26.8562 43.3531 27.5501 43.3286 28.0202C43.2775 28.9213 43.2286 29.1004 42.9692 29.3388C42.5522 29.7301 41.7394 29.6368 41.4312 29.1653C41.2702 28.9123 41.2476 28.727 41.2787 27.6742C41.3682 24.5598 40.7383 22.1213 39.2209 19.683C37.4077 16.7576 34.6955 14.7869 31.1687 13.8228C30.2693 13.5774 29.5113 13.4278 28.3325 13.2691C27.5646 13.1686 27.3965 13.1261 27.207 13.0095C26.6344 12.6428 26.6268 11.7143 27.1975 11.342C27.4921 11.1455 27.7092 11.1367 28.6692 11.2597C31.4842 11.6114 33.996 12.4479 36.0599 13.7118C37.5393 14.619 38.4721 15.434 39.673 16.8613C40.9432 18.3836 41.6158 19.5091 42.2804 21.2339ZM40.9331 37.2845C40.878 37.1225 40.7494 36.8727 40.6575 36.7292C40.0786 35.8502 36.9685 33.4027 35.4157 32.6022C34.529 32.1442 33.8721 31.9915 33.3851 32.1349C32.8614 32.283 32.5857 32.5282 31.7083 33.6247C31.3546 34.0643 30.9916 34.4761 30.8951 34.5408C30.6562 34.7074 30.1877 34.8416 29.8569 34.8416C29.0897 34.8369 27.6977 34.3372 26.6273 33.6802C25.7957 33.1714 24.73 32.2599 23.9122 31.3577C22.9474 30.2982 22.2905 29.3636 21.7713 28.3087C21.1006 26.9531 20.9307 26.1248 21.2109 25.5187C21.2798 25.3661 21.3717 25.2042 21.413 25.1532C21.4544 25.107 21.8862 24.7507 22.3639 24.3621C23.3012 23.6126 23.4528 23.4414 23.6273 22.9278C23.8478 22.2754 23.7882 21.6092 23.4482 20.9383C23.1863 20.4294 22.5018 19.319 22.0057 18.6018C21.3487 17.658 19.7132 15.6408 19.387 15.3677C18.799 14.8866 18.0456 14.8033 17.214 15.1272C16.3366 15.4696 14.6919 16.8021 13.989 17.732C13.355 18.5741 13.1116 19.1709 13.0748 19.9575C13.0427 20.6052 13.0978 20.8735 13.4378 21.7017C16.0977 28.1976 20.0669 33.3841 25.5201 37.502C28.3684 39.6533 31.3224 41.2912 34.3866 42.4109C36.1737 43.0632 36.9501 43.0956 37.8643 42.559C38.2502 42.3276 39.2057 41.3421 39.7386 40.625C40.6207 39.4312 40.9469 38.8807 41.0388 38.4412C41.1031 38.1404 41.0526 37.6176 40.9331 37.2845ZM35.4729 17.664C37.8457 19.5828 39.1715 22.3099 39.3686 25.6994C39.4515 27.0345 39.3413 27.4693 38.8703 27.717C38.4453 27.9465 37.9638 27.8709 37.6334 27.5254C37.4145 27.3007 37.3305 26.9934 37.3337 26.4492C37.3433 24.9444 36.9967 23.2641 36.433 22.098C35.7806 20.741 34.7722 19.5861 33.5037 18.7417C32.3925 18.0001 30.922 17.4992 29.4962 17.3745C28.5713 17.2936 28.2411 17.1369 28.0635 16.6936C27.9536 16.4283 27.9826 15.9698 28.1115 15.7645C28.2335 15.5751 28.507 15.3657 28.7004 15.3103C28.9053 15.2506 30.1 15.3551 30.7488 15.484C32.5201 15.8446 34.1361 16.5859 35.4729 17.664ZM34.3811 21.707C34.985 22.4765 35.325 23.3452 35.4613 24.4516C35.4911 24.6819 35.5034 25.1108 35.4949 25.399C35.4819 25.8644 35.4631 25.9517 35.3402 26.1521C35.0052 26.684 34.2155 26.7704 33.7718 26.326C33.5323 26.0829 33.4731 25.8721 33.4499 25.1867C33.4001 23.7268 32.9353 22.825 31.9373 22.2487C31.4671 21.9799 30.9502 21.8013 30.2023 21.6637C29.6406 21.5534 29.4386 21.4524 29.2636 21.1704C29.0147 20.7819 29.0783 20.182 29.404 19.8827C29.7537 19.5633 30.1443 19.5363 31.1112 19.7709C32.5948 20.1229 33.5969 20.7162 34.3811 21.707Z" fill="white"/>
</svg>
