<svg width="56" height="56" viewBox="0 0 56 56" fill="none" xmlns="http://www.w3.org/2000/svg">
<rect width="56" height="56" rx="28" fill="#28589E"/>
<path fill-rule="evenodd" clip-rule="evenodd" d="M23.3429 33.6969L23.3416 33.696L36.3253 21.9791C36.8951 21.4734 36.2009 21.2268 35.4444 21.6855L19.4207 31.7947L12.4994 29.6344C11.0046 29.1767 10.9939 28.1496 12.8349 27.4112L39.8059 17.0113C41.0378 16.4521 42.2267 17.3072 41.7565 19.1926L37.1633 40.8372C36.8426 42.3754 35.9132 42.7432 34.6256 42.0327L27.629 36.8636L24.2665 40.1331C24.2559 40.1434 24.2454 40.1537 24.2349 40.1639C23.8587 40.5301 23.5475 40.8331 22.8665 40.8331L23.3429 33.6969Z" fill="white"/>
</svg>
