<svg width="56" height="56" viewBox="0 0 56 56" fill="none" xmlns="http://www.w3.org/2000/svg">
<rect width="56" height="56" rx="28" fill="#28589E"/>
<path fill-rule="evenodd" clip-rule="evenodd" d="M28.9247 43.5784H28.9179C26.1313 43.5775 23.3933 42.8783 20.9614 41.5519L12.1352 43.8672L14.4972 35.2395C13.0402 32.7144 12.2735 29.8502 12.2748 26.9158C12.2784 17.7358 19.7474 10.2672 28.9246 10.2672C33.3786 10.2691 37.559 12.003 40.7024 15.1502C43.8459 18.2971 45.5761 22.4802 45.5743 26.9289C45.5706 36.1068 38.1046 43.5747 28.9247 43.5784ZM21.371 38.5369L21.8764 38.8368C24.0011 40.0977 26.4366 40.7648 28.9198 40.7658H28.9255C36.5528 40.7658 42.7608 34.5577 42.7638 26.9272C42.7653 23.2295 41.3272 19.7526 38.7145 17.1369C36.1017 14.5211 32.6272 13.0798 28.9309 13.0786C21.2976 13.0786 15.0896 19.286 15.0866 26.916C15.0855 29.5308 15.8171 32.0774 17.2024 34.2806L17.5314 34.8042L16.1334 39.9109L21.371 38.5369ZM37.3122 30.8875C37.2082 30.714 36.9309 30.6099 36.5149 30.4016C36.0989 30.1934 34.0536 29.187 33.6722 29.0481C33.2909 28.9093 33.0134 28.84 32.7362 29.2563C32.4589 29.6727 31.6616 30.6099 31.4189 30.8875C31.1762 31.1651 30.9335 31.2 30.5177 30.9916C30.1016 30.7834 28.7611 30.3442 27.1721 28.9268C25.9353 27.8236 25.1004 26.4613 24.8577 26.0448C24.6151 25.6283 24.8319 25.4033 25.0401 25.1958C25.2273 25.0094 25.4562 24.7098 25.6642 24.4669C25.8722 24.2241 25.9415 24.0504 26.0802 23.773C26.2188 23.4952 26.1495 23.2524 26.0455 23.0441C25.9415 22.8359 25.1095 20.7881 24.7628 19.9551C24.4251 19.1439 24.0822 19.2538 23.8268 19.241C23.5844 19.2288 23.3068 19.2263 23.0295 19.2263C22.7522 19.2263 22.3014 19.3304 21.9201 19.7469C21.5388 20.1634 20.4641 21.1699 20.4641 23.2174C20.4641 25.2652 21.9548 27.2434 22.1628 27.521C22.3708 27.7988 25.0963 32.0007 29.2696 33.8027C30.2621 34.2314 31.037 34.4874 31.6412 34.6791C32.6378 34.9958 33.5448 34.9511 34.2615 34.8439C35.0609 34.7245 36.7229 33.8376 37.0697 32.8659C37.4162 31.8939 37.4162 31.061 37.3122 30.8875Z" fill="white"/>
</svg>
